<?xml version="1.0" encoding="UTF-8" standalone="no"?>
<!DOCTYPE svg PUBLIC "-//W3C//DTD SVG 1.1//EN"
 "http://www.w3.org/Graphics/SVG/1.1/DTD/svg11.dtd">
<!-- Generated by graphviz version 2.40.1 (20161225.0304)
 -->
<!-- Title: Tree Pages: 1 -->
<svg width="602pt" height="433pt"
 viewBox="0.00 0.00 602.00 433.00" xmlns="http://www.w3.org/2000/svg" xmlns:xlink="http://www.w3.org/1999/xlink">
<g id="graph0" class="graph" transform="scale(1 1) rotate(0) translate(4 429)">
<title>Tree</title>
<polygon fill="#ffffff" stroke="transparent" points="-4,4 -4,-429 598,-429 598,4 -4,4"/>
<!-- 0 -->
<g id="node1" class="node">
<title>0</title>
<path fill="#399de5" fill-opacity="0.098039" stroke="#000000" d="M386.5,-425C386.5,-425 310.5,-425 310.5,-425 304.5,-425 298.5,-419 298.5,-413 298.5,-413 298.5,-354 298.5,-354 298.5,-348 304.5,-342 310.5,-342 310.5,-342 386.5,-342 386.5,-342 392.5,-342 398.5,-348 398.5,-354 398.5,-354 398.5,-413 398.5,-413 398.5,-419 392.5,-425 386.5,-425"/>
<text text-anchor="start" x="329.5" y="-409.8" font-family="Helvetica,sans-Serif" font-size="14.00" fill="#000000">cp ≤ 0.5</text>
<text text-anchor="start" x="321" y="-394.8" font-family="Helvetica,sans-Serif" font-size="14.00" fill="#000000">gini = 0.499</text>
<text text-anchor="start" x="314" y="-379.8" font-family="Helvetica,sans-Serif" font-size="14.00" fill="#000000">samples = 211</text>
<text text-anchor="start" x="306.5" y="-364.8" font-family="Helvetica,sans-Serif" font-size="14.00" fill="#000000">value = [100, 111]</text>
<text text-anchor="start" x="323.5" y="-349.8" font-family="Helvetica,sans-Serif" font-size="14.00" fill="#000000">class = No</text>
</g>
<!-- 1 -->
<g id="node2" class="node">
<title>1</title>
<path fill="#e58139" fill-opacity="0.694118" stroke="#000000" d="M327,-306C327,-306 262,-306 262,-306 256,-306 250,-300 250,-294 250,-294 250,-235 250,-235 250,-229 256,-223 262,-223 262,-223 327,-223 327,-223 333,-223 339,-229 339,-235 339,-235 339,-294 339,-294 339,-300 333,-306 327,-306"/>
<text text-anchor="start" x="275.5" y="-290.8" font-family="Helvetica,sans-Serif" font-size="14.00" fill="#000000">ca ≤ 0.5</text>
<text text-anchor="start" x="270" y="-275.8" font-family="Helvetica,sans-Serif" font-size="14.00" fill="#000000">gini = 0.36</text>
<text text-anchor="start" x="260" y="-260.8" font-family="Helvetica,sans-Serif" font-size="14.00" fill="#000000">samples = 102</text>
<text text-anchor="start" x="258" y="-245.8" font-family="Helvetica,sans-Serif" font-size="14.00" fill="#000000">value = [78, 24]</text>
<text text-anchor="start" x="267.5" y="-230.8" font-family="Helvetica,sans-Serif" font-size="14.00" fill="#000000">class = Yes</text>
</g>
<!-- 0&#45;&gt;1 -->
<g id="edge1" class="edge">
<title>0&#45;&gt;1</title>
<path fill="none" stroke="#000000" d="M329.6134,-341.8796C325.7717,-333.4136 321.6885,-324.4153 317.7166,-315.6626"/>
<polygon fill="#000000" stroke="#000000" points="320.7867,-313.9581 313.4672,-306.2981 314.4123,-316.8507 320.7867,-313.9581"/>
<text text-anchor="middle" x="304.6743" y="-326.0007" font-family="Helvetica,sans-Serif" font-size="14.00" fill="#000000">True</text>
</g>
<!-- 8 -->
<g id="node9" class="node">
<title>8</title>
<path fill="#399de5" fill-opacity="0.749020" stroke="#000000" d="M478,-306C478,-306 413,-306 413,-306 407,-306 401,-300 401,-294 401,-294 401,-235 401,-235 401,-229 407,-223 413,-223 413,-223 478,-223 478,-223 484,-223 490,-229 490,-235 490,-235 490,-294 490,-294 490,-300 484,-306 478,-306"/>
<text text-anchor="start" x="411" y="-290.8" font-family="Helvetica,sans-Serif" font-size="14.00" fill="#000000">oldpeak ≤ 20.0</text>
<text text-anchor="start" x="418" y="-275.8" font-family="Helvetica,sans-Serif" font-size="14.00" fill="#000000">gini = 0.322</text>
<text text-anchor="start" x="411" y="-260.8" font-family="Helvetica,sans-Serif" font-size="14.00" fill="#000000">samples = 109</text>
<text text-anchor="start" x="409" y="-245.8" font-family="Helvetica,sans-Serif" font-size="14.00" fill="#000000">value = [22, 87]</text>
<text text-anchor="start" x="420.5" y="-230.8" font-family="Helvetica,sans-Serif" font-size="14.00" fill="#000000">class = No</text>
</g>
<!-- 0&#45;&gt;8 -->
<g id="edge8" class="edge">
<title>0&#45;&gt;8</title>
<path fill="none" stroke="#000000" d="M382.4259,-341.8796C389.6938,-332.9633 397.443,-323.4565 404.9328,-314.268"/>
<polygon fill="#000000" stroke="#000000" points="407.824,-316.2606 411.4293,-306.2981 402.3982,-311.8379 407.824,-316.2606"/>
<text text-anchor="middle" x="413.9625" y="-327.4694" font-family="Helvetica,sans-Serif" font-size="14.00" fill="#000000">False</text>
</g>
<!-- 2 -->
<g id="node3" class="node">
<title>2</title>
<path fill="#e58139" fill-opacity="0.043137" stroke="#000000" d="M175,-187C175,-187 110,-187 110,-187 104,-187 98,-181 98,-175 98,-175 98,-116 98,-116 98,-110 104,-104 110,-104 110,-104 175,-104 175,-104 181,-104 187,-110 187,-116 187,-116 187,-175 187,-175 187,-181 181,-187 175,-187"/>
<text text-anchor="start" x="115" y="-171.8" font-family="Helvetica,sans-Serif" font-size="14.00" fill="#000000">exang ≤ 0.5</text>
<text text-anchor="start" x="121" y="-156.8" font-family="Helvetica,sans-Serif" font-size="14.00" fill="#000000">gini = 0.5</text>
<text text-anchor="start" x="111" y="-141.8" font-family="Helvetica,sans-Serif" font-size="14.00" fill="#000000">samples = 45</text>
<text text-anchor="start" x="106" y="-126.8" font-family="Helvetica,sans-Serif" font-size="14.00" fill="#000000">value = [23, 22]</text>
<text text-anchor="start" x="115.5" y="-111.8" font-family="Helvetica,sans-Serif" font-size="14.00" fill="#000000">class = Yes</text>
</g>
<!-- 1&#45;&gt;2 -->
<g id="edge2" class="edge">
<title>1&#45;&gt;2</title>
<path fill="none" stroke="#000000" d="M249.7171,-229.4397C232.6305,-216.0627 212.996,-200.6909 195.2369,-186.7875"/>
<polygon fill="#000000" stroke="#000000" points="197.2568,-183.9238 187.2252,-180.5152 192.9416,-189.4356 197.2568,-183.9238"/>
</g>
<!-- 5 -->
<g id="node6" class="node">
<title>5</title>
<path fill="#e58139" fill-opacity="0.964706" stroke="#000000" d="M328.5,-187C328.5,-187 260.5,-187 260.5,-187 254.5,-187 248.5,-181 248.5,-175 248.5,-175 248.5,-116 248.5,-116 248.5,-110 254.5,-104 260.5,-104 260.5,-104 328.5,-104 328.5,-104 334.5,-104 340.5,-110 340.5,-116 340.5,-116 340.5,-175 340.5,-175 340.5,-181 334.5,-187 328.5,-187"/>
<text text-anchor="start" x="256.5" y="-171.8" font-family="Helvetica,sans-Serif" font-size="14.00" fill="#000000">trestbps ≤ 111.0</text>
<text text-anchor="start" x="267" y="-156.8" font-family="Helvetica,sans-Serif" font-size="14.00" fill="#000000">gini = 0.068</text>
<text text-anchor="start" x="263" y="-141.8" font-family="Helvetica,sans-Serif" font-size="14.00" fill="#000000">samples = 57</text>
<text text-anchor="start" x="261" y="-126.8" font-family="Helvetica,sans-Serif" font-size="14.00" fill="#000000">value = [55, 2]</text>
<text text-anchor="start" x="267.5" y="-111.8" font-family="Helvetica,sans-Serif" font-size="14.00" fill="#000000">class = Yes</text>
</g>
<!-- 1&#45;&gt;5 -->
<g id="edge5" class="edge">
<title>1&#45;&gt;5</title>
<path fill="none" stroke="#000000" d="M294.5,-222.8796C294.5,-214.6838 294.5,-205.9891 294.5,-197.5013"/>
<polygon fill="#000000" stroke="#000000" points="298.0001,-197.298 294.5,-187.2981 291.0001,-197.2981 298.0001,-197.298"/>
</g>
<!-- 3 -->
<g id="node4" class="node">
<title>3</title>
<path fill="#399de5" fill-opacity="0.650980" stroke="#000000" d="M71,-68C71,-68 12,-68 12,-68 6,-68 0,-62 0,-56 0,-56 0,-12 0,-12 0,-6 6,0 12,0 12,0 71,0 71,0 77,0 83,-6 83,-12 83,-12 83,-56 83,-56 83,-62 77,-68 71,-68"/>
<text text-anchor="start" x="14" y="-52.8" font-family="Helvetica,sans-Serif" font-size="14.00" fill="#000000">gini = 0.384</text>
<text text-anchor="start" x="10" y="-37.8" font-family="Helvetica,sans-Serif" font-size="14.00" fill="#000000">samples = 27</text>
<text text-anchor="start" x="8" y="-22.8" font-family="Helvetica,sans-Serif" font-size="14.00" fill="#000000">value = [7, 20]</text>
<text text-anchor="start" x="16.5" y="-7.8" font-family="Helvetica,sans-Serif" font-size="14.00" fill="#000000">class = No</text>
</g>
<!-- 2&#45;&gt;3 -->
<g id="edge3" class="edge">
<title>2&#45;&gt;3</title>
<path fill="none" stroke="#000000" d="M104.8913,-103.9815C96.5661,-94.7908 87.74,-85.0472 79.4032,-75.8436"/>
<polygon fill="#000000" stroke="#000000" points="81.8446,-73.3254 72.537,-68.2637 76.6566,-78.0248 81.8446,-73.3254"/>
</g>
<!-- 4 -->
<g id="node5" class="node">
<title>4</title>
<path fill="#e58139" fill-opacity="0.874510" stroke="#000000" d="M172,-68C172,-68 113,-68 113,-68 107,-68 101,-62 101,-56 101,-56 101,-12 101,-12 101,-6 107,0 113,0 113,0 172,0 172,0 178,0 184,-6 184,-12 184,-12 184,-56 184,-56 184,-62 178,-68 172,-68"/>
<text text-anchor="start" x="115" y="-52.8" font-family="Helvetica,sans-Serif" font-size="14.00" fill="#000000">gini = 0.198</text>
<text text-anchor="start" x="111" y="-37.8" font-family="Helvetica,sans-Serif" font-size="14.00" fill="#000000">samples = 18</text>
<text text-anchor="start" x="109" y="-22.8" font-family="Helvetica,sans-Serif" font-size="14.00" fill="#000000">value = [16, 2]</text>
<text text-anchor="start" x="115.5" y="-7.8" font-family="Helvetica,sans-Serif" font-size="14.00" fill="#000000">class = Yes</text>
</g>
<!-- 2&#45;&gt;4 -->
<g id="edge4" class="edge">
<title>2&#45;&gt;4</title>
<path fill="none" stroke="#000000" d="M142.5,-103.9815C142.5,-95.618 142.5,-86.7965 142.5,-78.3409"/>
<polygon fill="#000000" stroke="#000000" points="146.0001,-78.2636 142.5,-68.2637 139.0001,-78.2637 146.0001,-78.2636"/>
</g>
<!-- 6 -->
<g id="node7" class="node">
<title>6</title>
<path fill="#e58139" fill-opacity="0.800000" stroke="#000000" d="M273,-68C273,-68 214,-68 214,-68 208,-68 202,-62 202,-56 202,-56 202,-12 202,-12 202,-6 208,0 214,0 214,0 273,0 273,0 279,0 285,-6 285,-12 285,-12 285,-56 285,-56 285,-62 279,-68 273,-68"/>
<text text-anchor="start" x="216" y="-52.8" font-family="Helvetica,sans-Serif" font-size="14.00" fill="#000000">gini = 0.278</text>
<text text-anchor="start" x="212" y="-37.8" font-family="Helvetica,sans-Serif" font-size="14.00" fill="#000000">samples = 12</text>
<text text-anchor="start" x="210" y="-22.8" font-family="Helvetica,sans-Serif" font-size="14.00" fill="#000000">value = [10, 2]</text>
<text text-anchor="start" x="216.5" y="-7.8" font-family="Helvetica,sans-Serif" font-size="14.00" fill="#000000">class = Yes</text>
</g>
<!-- 5&#45;&gt;6 -->
<g id="edge6" class="edge">
<title>5&#45;&gt;6</title>
<path fill="none" stroke="#000000" d="M275.5095,-103.9815C271.5579,-95.3423 267.3828,-86.2144 263.3995,-77.5059"/>
<polygon fill="#000000" stroke="#000000" points="266.5146,-75.9017 259.1722,-68.2637 260.1489,-78.8134 266.5146,-75.9017"/>
</g>
<!-- 7 -->
<g id="node8" class="node">
<title>7</title>
<path fill="#e58139" stroke="#000000" d="M374,-68C374,-68 315,-68 315,-68 309,-68 303,-62 303,-56 303,-56 303,-12 303,-12 303,-6 309,0 315,0 315,0 374,0 374,0 380,0 386,-6 386,-12 386,-12 386,-56 386,-56 386,-62 380,-68 374,-68"/>
<text text-anchor="start" x="323" y="-52.8" font-family="Helvetica,sans-Serif" font-size="14.00" fill="#000000">gini = 0.0</text>
<text text-anchor="start" x="313" y="-37.8" font-family="Helvetica,sans-Serif" font-size="14.00" fill="#000000">samples = 45</text>
<text text-anchor="start" x="311" y="-22.8" font-family="Helvetica,sans-Serif" font-size="14.00" fill="#000000">value = [45, 0]</text>
<text text-anchor="start" x="317.5" y="-7.8" font-family="Helvetica,sans-Serif" font-size="14.00" fill="#000000">class = Yes</text>
</g>
<!-- 5&#45;&gt;7 -->
<g id="edge7" class="edge">
<title>5&#45;&gt;7</title>
<path fill="none" stroke="#000000" d="M313.1182,-103.9815C316.9922,-95.3423 321.0855,-86.2144 324.9906,-77.5059"/>
<polygon fill="#000000" stroke="#000000" points="328.2369,-78.8204 329.1351,-68.2637 321.8497,-75.9561 328.2369,-78.8204"/>
</g>
<!-- 9 -->
<g id="node10" class="node">
<title>9</title>
<path fill="#399de5" fill-opacity="0.823529" stroke="#000000" d="M478,-187C478,-187 413,-187 413,-187 407,-187 401,-181 401,-175 401,-175 401,-116 401,-116 401,-110 407,-104 413,-104 413,-104 478,-104 478,-104 484,-104 490,-110 490,-116 490,-116 490,-175 490,-175 490,-181 484,-187 478,-187"/>
<text text-anchor="start" x="420.5" y="-171.8" font-family="Helvetica,sans-Serif" font-size="14.00" fill="#000000">age ≤ 56.5</text>
<text text-anchor="start" x="418" y="-156.8" font-family="Helvetica,sans-Serif" font-size="14.00" fill="#000000">gini = 0.255</text>
<text text-anchor="start" x="411" y="-141.8" font-family="Helvetica,sans-Serif" font-size="14.00" fill="#000000">samples = 100</text>
<text text-anchor="start" x="409" y="-126.8" font-family="Helvetica,sans-Serif" font-size="14.00" fill="#000000">value = [15, 85]</text>
<text text-anchor="start" x="420.5" y="-111.8" font-family="Helvetica,sans-Serif" font-size="14.00" fill="#000000">class = No</text>
</g>
<!-- 8&#45;&gt;9 -->
<g id="edge9" class="edge">
<title>8&#45;&gt;9</title>
<path fill="none" stroke="#000000" d="M445.5,-222.8796C445.5,-214.6838 445.5,-205.9891 445.5,-197.5013"/>
<polygon fill="#000000" stroke="#000000" points="449.0001,-197.298 445.5,-187.2981 442.0001,-197.2981 449.0001,-197.298"/>
</g>
<!-- 12 -->
<g id="node13" class="node">
<title>12</title>
<path fill="#e58139" fill-opacity="0.713725" stroke="#000000" d="M573,-179.5C573,-179.5 520,-179.5 520,-179.5 514,-179.5 508,-173.5 508,-167.5 508,-167.5 508,-123.5 508,-123.5 508,-117.5 514,-111.5 520,-111.5 520,-111.5 573,-111.5 573,-111.5 579,-111.5 585,-117.5 585,-123.5 585,-123.5 585,-167.5 585,-167.5 585,-173.5 579,-179.5 573,-179.5"/>
<text text-anchor="start" x="519" y="-164.3" font-family="Helvetica,sans-Serif" font-size="14.00" fill="#000000">gini = 0.346</text>
<text text-anchor="start" x="518" y="-149.3" font-family="Helvetica,sans-Serif" font-size="14.00" fill="#000000">samples = 9</text>
<text text-anchor="start" x="516" y="-134.3" font-family="Helvetica,sans-Serif" font-size="14.00" fill="#000000">value = [7, 2]</text>
<text text-anchor="start" x="519.5" y="-119.3" font-family="Helvetica,sans-Serif" font-size="14.00" fill="#000000">class = Yes</text>
</g>
<!-- 8&#45;&gt;12 -->
<g id="edge12" class="edge">
<title>8&#45;&gt;12</title>
<path fill="none" stroke="#000000" d="M480.8249,-222.8796C490.531,-211.4436 501.0616,-199.0363 510.7893,-187.575"/>
<polygon fill="#000000" stroke="#000000" points="513.5731,-189.7039 517.3756,-179.8149 508.2362,-185.1743 513.5731,-189.7039"/>
</g>
<!-- 10 -->
<g id="node11" class="node">
<title>10</title>
<path fill="#399de5" fill-opacity="0.933333" stroke="#000000" d="M475,-68C475,-68 416,-68 416,-68 410,-68 404,-62 404,-56 404,-56 404,-12 404,-12 404,-6 410,0 416,0 416,0 475,0 475,0 481,0 487,-6 487,-12 487,-12 487,-56 487,-56 487,-62 481,-68 475,-68"/>
<text text-anchor="start" x="418" y="-52.8" font-family="Helvetica,sans-Serif" font-size="14.00" fill="#000000">gini = 0.116</text>
<text text-anchor="start" x="414" y="-37.8" font-family="Helvetica,sans-Serif" font-size="14.00" fill="#000000">samples = 65</text>
<text text-anchor="start" x="412" y="-22.8" font-family="Helvetica,sans-Serif" font-size="14.00" fill="#000000">value = [4, 61]</text>
<text text-anchor="start" x="420.5" y="-7.8" font-family="Helvetica,sans-Serif" font-size="14.00" fill="#000000">class = No</text>
</g>
<!-- 9&#45;&gt;10 -->
<g id="edge10" class="edge">
<title>9&#45;&gt;10</title>
<path fill="none" stroke="#000000" d="M445.5,-103.9815C445.5,-95.618 445.5,-86.7965 445.5,-78.3409"/>
<polygon fill="#000000" stroke="#000000" points="449.0001,-78.2636 445.5,-68.2637 442.0001,-78.2637 449.0001,-78.2636"/>
</g>
<!-- 11 -->
<g id="node12" class="node">
<title>11</title>
<path fill="#399de5" fill-opacity="0.541176" stroke="#000000" d="M582,-68C582,-68 517,-68 517,-68 511,-68 505,-62 505,-56 505,-56 505,-12 505,-12 505,-6 511,0 517,0 517,0 582,0 582,0 588,0 594,-6 594,-12 594,-12 594,-56 594,-56 594,-62 588,-68 582,-68"/>
<text text-anchor="start" x="522" y="-52.8" font-family="Helvetica,sans-Serif" font-size="14.00" fill="#000000">gini = 0.431</text>
<text text-anchor="start" x="518" y="-37.8" font-family="Helvetica,sans-Serif" font-size="14.00" fill="#000000">samples = 35</text>
<text text-anchor="start" x="513" y="-22.8" font-family="Helvetica,sans-Serif" font-size="14.00" fill="#000000">value = [11, 24]</text>
<text text-anchor="start" x="524.5" y="-7.8" font-family="Helvetica,sans-Serif" font-size="14.00" fill="#000000">class = No</text>
</g>
<!-- 9&#45;&gt;11 -->
<g id="edge11" class="edge">
<title>9&#45;&gt;11</title>
<path fill="none" stroke="#000000" d="M484.2258,-103.9815C492.7982,-94.7908 501.8865,-85.0472 510.471,-75.8436"/>
<polygon fill="#000000" stroke="#000000" points="513.2796,-77.9637 517.5411,-68.2637 508.1607,-73.1891 513.2796,-77.9637"/>
</g>
</g>
</svg>
